<svg xmlns="http://www.w3.org/2000/svg" xmlns:xlink="http://www.w3.org/1999/xlink" version="1.1" class="marks" width="819" height="494" viewBox="0 0 819 494"><rect width="819" height="494" fill="white"/><g fill="none" stroke-miterlimit="10" transform="translate(59,45)"><g class="mark-group role-frame root" role="graphics-object" aria-roledescription="group mark container"><g transform="translate(0,0)"><path class="background" aria-hidden="true" d="M0.5,0.5h600v400h-600Z" stroke="#ddd"/><g><g class="mark-group role-axis" aria-hidden="true"><g transform="translate(0.5,400.5)"><path class="background" aria-hidden="true" d="M0,0h0v0h0Z" pointer-events="none"/><g><g class="mark-rule role-axis-grid" pointer-events="none"><line transform="translate(0,-400)" x2="0" y2="400" stroke="#ddd" stroke-width="1" opacity="1"/><line transform="translate(30,-400)" x2="0" y2="400" stroke="#ddd" stroke-width="1" opacity="1"/><line transform="translate(60,-400)" x2="0" y2="400" stroke="#ddd" stroke-width="1" opacity="1"/><line transform="translate(90,-400)" x2="0" y2="400" stroke="#ddd" stroke-width="1" opacity="1"/><line transform="translate(120,-400)" x2="0" y2="400" stroke="#ddd" stroke-width="1" opacity="1"/><line transform="translate(150,-400)" x2="0" y2="400" stroke="#ddd" stroke-width="1" opacity="1"/><line transform="translate(180,-400)" x2="0" y2="400" stroke="#ddd" stroke-width="1" opacity="1"/><line transform="translate(210,-400)" x2="0" y2="400" stroke="#ddd" stroke-width="1" opacity="1"/><line transform="translate(240,-400)" x2="0" y2="400" stroke="#ddd" stroke-width="1" opacity="1"/><line transform="translate(270,-400)" x2="0" y2="400" stroke="#ddd" stroke-width="1" opacity="1"/><line transform="translate(300,-400)" x2="0" y2="400" stroke="#ddd" stroke-width="1" opacity="1"/><line transform="translate(330,-400)" x2="0" y2="400" stroke="#ddd" stroke-width="1" opacity="1"/><line transform="translate(360,-400)" x2="0" y2="400" stroke="#ddd" stroke-width="1" opacity="1"/><line transform="translate(390,-400)" x2="0" y2="400" stroke="#ddd" stroke-width="1" opacity="1"/><line transform="translate(420,-400)" x2="0" y2="400" stroke="#ddd" stroke-width="1" opacity="1"/><line transform="translate(450,-400)" x2="0" y2="400" stroke="#ddd" stroke-width="1" opacity="1"/><line transform="translate(480,-400)" x2="0" y2="400" stroke="#ddd" stroke-width="1" opacity="1"/><line transform="translate(510,-400)" x2="0" y2="400" stroke="#ddd" stroke-width="1" opacity="1"/><line transform="translate(540,-400)" x2="0" y2="400" stroke="#ddd" stroke-width="1" opacity="1"/><line transform="translate(570,-400)" x2="0" y2="400" stroke="#ddd" stroke-width="1" opacity="1"/><line transform="translate(600,-400)" x2="0" y2="400" stroke="#ddd" stroke-width="1" opacity="1"/></g></g><path class="foreground" aria-hidden="true" d="" pointer-events="none" display="none"/></g></g><g class="mark-group role-axis" aria-hidden="true"><g transform="translate(0.5,0.5)"><path class="background" aria-hidden="true" d="M0,0h0v0h0Z" pointer-events="none"/><g><g class="mark-rule role-axis-grid" pointer-events="none"><line transform="translate(0,400)" x2="600" y2="0" stroke="#ddd" stroke-width="1" opacity="1"/><line transform="translate(0,360)" x2="600" y2="0" stroke="#ddd" stroke-width="1" opacity="1"/><line transform="translate(0,320)" x2="600" y2="0" stroke="#ddd" stroke-width="1" opacity="1"/><line transform="translate(0,280)" x2="600" y2="0" stroke="#ddd" stroke-width="1" opacity="1"/><line transform="translate(0,240)" x2="600" y2="0" stroke="#ddd" stroke-width="1" opacity="1"/><line transform="translate(0,200)" x2="600" y2="0" stroke="#ddd" stroke-width="1" opacity="1"/><line transform="translate(0,160)" x2="600" y2="0" stroke="#ddd" stroke-width="1" opacity="1"/><line transform="translate(0,120)" x2="600" y2="0" stroke="#ddd" stroke-width="1" opacity="1"/><line transform="translate(0,80)" x2="600" y2="0" stroke="#ddd" stroke-width="1" opacity="1"/><line transform="translate(0,40)" x2="600" y2="0" stroke="#ddd" stroke-width="1" opacity="1"/><line transform="translate(0,0)" x2="600" y2="0" stroke="#ddd" stroke-width="1" opacity="1"/></g></g><path class="foreground" aria-hidden="true" d="" pointer-events="none" display="none"/></g></g><g class="mark-group role-axis" role="graphics-symbol" aria-roledescription="axis" aria-label="X-axis titled '% Women Aged 15-44 Living In A County Without A Clinic (2020)' for a linear scale with values from 0 to 100"><g transform="translate(0.5,400.5)"><path class="background" aria-hidden="true" d="M0,0h0v0h0Z" pointer-events="none"/><g><g class="mark-rule role-axis-tick" pointer-events="none"><line transform="translate(0,0)" x2="0" y2="5" stroke="#888" stroke-width="1" opacity="1"/><line transform="translate(30,0)" x2="0" y2="5" stroke="#888" stroke-width="1" opacity="1"/><line transform="translate(60,0)" x2="0" y2="5" stroke="#888" stroke-width="1" opacity="1"/><line transform="translate(90,0)" x2="0" y2="5" stroke="#888" stroke-width="1" opacity="1"/><line transform="translate(120,0)" x2="0" y2="5" stroke="#888" stroke-width="1" opacity="1"/><line transform="translate(150,0)" x2="0" y2="5" stroke="#888" stroke-width="1" opacity="1"/><line transform="translate(180,0)" x2="0" y2="5" stroke="#888" stroke-width="1" opacity="1"/><line transform="translate(210,0)" x2="0" y2="5" stroke="#888" stroke-width="1" opacity="1"/><line transform="translate(240,0)" x2="0" y2="5" stroke="#888" stroke-width="1" opacity="1"/><line transform="translate(270,0)" x2="0" y2="5" stroke="#888" stroke-width="1" opacity="1"/><line transform="translate(300,0)" x2="0" y2="5" stroke="#888" stroke-width="1" opacity="1"/><line transform="translate(330,0)" x2="0" y2="5" stroke="#888" stroke-width="1" opacity="1"/><line transform="translate(360,0)" x2="0" y2="5" stroke="#888" stroke-width="1" opacity="1"/><line transform="translate(390,0)" x2="0" y2="5" stroke="#888" stroke-width="1" opacity="1"/><line transform="translate(420,0)" x2="0" y2="5" stroke="#888" stroke-width="1" opacity="1"/><line transform="translate(450,0)" x2="0" y2="5" stroke="#888" stroke-width="1" opacity="1"/><line transform="translate(480,0)" x2="0" y2="5" stroke="#888" stroke-width="1" opacity="1"/><line transform="translate(510,0)" x2="0" y2="5" stroke="#888" stroke-width="1" opacity="1"/><line transform="translate(540,0)" x2="0" y2="5" stroke="#888" stroke-width="1" opacity="1"/><line transform="translate(570,0)" x2="0" y2="5" stroke="#888" stroke-width="1" opacity="1"/><line transform="translate(600,0)" x2="0" y2="5" stroke="#888" stroke-width="1" opacity="1"/></g><g class="mark-text role-axis-label" pointer-events="none"><text text-anchor="start" transform="translate(0,16)" font-family="sans-serif" font-size="12px" fill="#000" opacity="1">0</text><text text-anchor="middle" transform="translate(30,16)" font-family="sans-serif" font-size="12px" fill="#000" opacity="1">5</text><text text-anchor="middle" transform="translate(60,16)" font-family="sans-serif" font-size="12px" fill="#000" opacity="1">10</text><text text-anchor="middle" transform="translate(90,16)" font-family="sans-serif" font-size="12px" fill="#000" opacity="1">15</text><text text-anchor="middle" transform="translate(120,16)" font-family="sans-serif" font-size="12px" fill="#000" opacity="1">20</text><text text-anchor="middle" transform="translate(150,16)" font-family="sans-serif" font-size="12px" fill="#000" opacity="1">25</text><text text-anchor="middle" transform="translate(180,16)" font-family="sans-serif" font-size="12px" fill="#000" opacity="1">30</text><text text-anchor="middle" transform="translate(210,16)" font-family="sans-serif" font-size="12px" fill="#000" opacity="1">35</text><text text-anchor="middle" transform="translate(240,16)" font-family="sans-serif" font-size="12px" fill="#000" opacity="1">40</text><text text-anchor="middle" transform="translate(270,16)" font-family="sans-serif" font-size="12px" fill="#000" opacity="1">45</text><text text-anchor="middle" transform="translate(300,16)" font-family="sans-serif" font-size="12px" fill="#000" opacity="1">50</text><text text-anchor="middle" transform="translate(330,16)" font-family="sans-serif" font-size="12px" fill="#000" opacity="1">55</text><text text-anchor="middle" transform="translate(360,16)" font-family="sans-serif" font-size="12px" fill="#000" opacity="1">60</text><text text-anchor="middle" transform="translate(390,16)" font-family="sans-serif" font-size="12px" fill="#000" opacity="1">65</text><text text-anchor="middle" transform="translate(420,16)" font-family="sans-serif" font-size="12px" fill="#000" opacity="1">70</text><text text-anchor="middle" transform="translate(450,16)" font-family="sans-serif" font-size="12px" fill="#000" opacity="1">75</text><text text-anchor="middle" transform="translate(480,16)" font-family="sans-serif" font-size="12px" fill="#000" opacity="1">80</text><text text-anchor="middle" transform="translate(510,16)" font-family="sans-serif" font-size="12px" fill="#000" opacity="1">85</text><text text-anchor="middle" transform="translate(540,16)" font-family="sans-serif" font-size="12px" fill="#000" opacity="1">90</text><text text-anchor="middle" transform="translate(570,16)" font-family="sans-serif" font-size="12px" fill="#000" opacity="1">95</text><text text-anchor="end" transform="translate(600,16)" font-family="sans-serif" font-size="12px" fill="#000" opacity="1">100</text></g><g class="mark-rule role-axis-domain" pointer-events="none"><line transform="translate(0,0)" x2="600" y2="0" stroke="#888" stroke-width="1" opacity="1"/></g><g class="mark-text role-axis-title" pointer-events="none"><text text-anchor="middle" transform="translate(300,41)" font-family="sans-serif" font-size="14px" font-weight="bold" fill="#000" opacity="1">% Women Aged 15-44 Living In A County Without A Clinic (2020)</text></g></g><path class="foreground" aria-hidden="true" d="" pointer-events="none" display="none"/></g></g><g class="mark-group role-axis" role="graphics-symbol" aria-roledescription="axis" aria-label="Y-axis titled '% Residents Obtaining Abortions Out-of-State (2020)' for a linear scale with values from 0 to 100"><g transform="translate(0.5,0.5)"><path class="background" aria-hidden="true" d="M0,0h0v0h0Z" pointer-events="none"/><g><g class="mark-rule role-axis-tick" pointer-events="none"><line transform="translate(0,400)" x2="-5" y2="0" stroke="#888" stroke-width="1" opacity="1"/><line transform="translate(0,360)" x2="-5" y2="0" stroke="#888" stroke-width="1" opacity="1"/><line transform="translate(0,320)" x2="-5" y2="0" stroke="#888" stroke-width="1" opacity="1"/><line transform="translate(0,280)" x2="-5" y2="0" stroke="#888" stroke-width="1" opacity="1"/><line transform="translate(0,240)" x2="-5" y2="0" stroke="#888" stroke-width="1" opacity="1"/><line transform="translate(0,200)" x2="-5" y2="0" stroke="#888" stroke-width="1" opacity="1"/><line transform="translate(0,160)" x2="-5" y2="0" stroke="#888" stroke-width="1" opacity="1"/><line transform="translate(0,120)" x2="-5" y2="0" stroke="#888" stroke-width="1" opacity="1"/><line transform="translate(0,80)" x2="-5" y2="0" stroke="#888" stroke-width="1" opacity="1"/><line transform="translate(0,40)" x2="-5" y2="0" stroke="#888" stroke-width="1" opacity="1"/><line transform="translate(0,0)" x2="-5" y2="0" stroke="#888" stroke-width="1" opacity="1"/></g><g class="mark-text role-axis-label" pointer-events="none"><text text-anchor="end" transform="translate(-7,404)" font-family="sans-serif" font-size="12px" fill="#000" opacity="1">0</text><text text-anchor="end" transform="translate(-7,364)" font-family="sans-serif" font-size="12px" fill="#000" opacity="1">10</text><text text-anchor="end" transform="translate(-7,324)" font-family="sans-serif" font-size="12px" fill="#000" opacity="1">20</text><text text-anchor="end" transform="translate(-7,284)" font-family="sans-serif" font-size="12px" fill="#000" opacity="1">30</text><text text-anchor="end" transform="translate(-7,244)" font-family="sans-serif" font-size="12px" fill="#000" opacity="1">40</text><text text-anchor="end" transform="translate(-7,204)" font-family="sans-serif" font-size="12px" fill="#000" opacity="1">50</text><text text-anchor="end" transform="translate(-7,164)" font-family="sans-serif" font-size="12px" fill="#000" opacity="1">60</text><text text-anchor="end" transform="translate(-7,124.00000000000001)" font-family="sans-serif" font-size="12px" fill="#000" opacity="1">70</text><text text-anchor="end" transform="translate(-7,83.99999999999999)" font-family="sans-serif" font-size="12px" fill="#000" opacity="1">80</text><text text-anchor="end" transform="translate(-7,43.99999999999999)" font-family="sans-serif" font-size="12px" fill="#000" opacity="1">90</text><text text-anchor="end" transform="translate(-7,4)" font-family="sans-serif" font-size="12px" fill="#000" opacity="1">100</text></g><g class="mark-rule role-axis-domain" pointer-events="none"><line transform="translate(0,400)" x2="0" y2="-400" stroke="#888" stroke-width="1" opacity="1"/></g><g class="mark-text role-axis-title" pointer-events="none"><text text-anchor="middle" transform="translate(-39.021484375,200) rotate(-90) translate(0,-3)" font-family="sans-serif" font-size="14px" font-weight="bold" fill="#000" opacity="1">% Residents Obtaining Abortions Out-of-State (2020)</text></g></g><path class="foreground" aria-hidden="true" d="" pointer-events="none" display="none"/></g></g><g class="mark-symbol role-mark marks" role="graphics-object" aria-roledescription="symbol mark container"><path aria-label="% Women Aged 15-44 Living In A County Without A Clinic (2020): 59; % Residents Obtaining Abortions Out-of-State (2020): 47; 2024 Election Result: Republican; State: Alabama; % Women Without Clinic Access: 59; % Abortions Received Out-of-State: 47; 2024 Presidential Election Result: Republican" role="graphics-symbol" aria-roledescription="circle" transform="translate(354,212)" d="M5.59,0A5.59,5.59,0,1,1,-5.59,0A5.59,5.59,0,1,1,5.59,0" fill="#ef4444" stroke-width="2" opacity="0.7"/><path aria-label="% Women Aged 15-44 Living In A County Without A Clinic (2020): 33; % Residents Obtaining Abortions Out-of-State (2020): 7; 2024 Election Result: Republican; State: Alaska; % Women Without Clinic Access: 33; % Abortions Received Out-of-State: 7; 2024 Presidential Election Result: Republican" role="graphics-symbol" aria-roledescription="circle" transform="translate(198,372)" d="M5.59,0A5.59,5.59,0,1,1,-5.59,0A5.59,5.59,0,1,1,5.59,0" fill="#ef4444" stroke-width="2" opacity="0.7"/><path aria-label="% Women Aged 15-44 Living In A County Without A Clinic (2020): 18; % Residents Obtaining Abortions Out-of-State (2020): 6; 2024 Election Result: Republican; State: Arizona; % Women Without Clinic Access: 18; % Abortions Received Out-of-State: 6; 2024 Presidential Election Result: Republican" role="graphics-symbol" aria-roledescription="circle" transform="translate(108,376)" d="M5.59,0A5.59,5.59,0,1,1,-5.59,0A5.59,5.59,0,1,1,5.59,0" fill="#ef4444" stroke-width="2" opacity="0.7"/><path aria-label="% Women Aged 15-44 Living In A County Without A Clinic (2020): 86; % Residents Obtaining Abortions Out-of-State (2020): 37; 2024 Election Result: Republican; State: Arkansas; % Women Without Clinic Access: 86; % Abortions Received Out-of-State: 37; 2024 Presidential Election Result: Republican" role="graphics-symbol" aria-roledescription="circle" transform="translate(516,252)" d="M5.59,0A5.59,5.59,0,1,1,-5.59,0A5.59,5.59,0,1,1,5.59,0" fill="#ef4444" stroke-width="2" opacity="0.7"/><path aria-label="% Women Aged 15-44 Living In A County Without A Clinic (2020): 3; % Residents Obtaining Abortions Out-of-State (2020): 0; 2024 Election Result: Democrat; State: California; % Women Without Clinic Access: 3; % Abortions Received Out-of-State: 0; 2024 Presidential Election Result: Democrat" role="graphics-symbol" aria-roledescription="circle" transform="translate(18,400)" d="M5.59,0A5.59,5.59,0,1,1,-5.59,0A5.59,5.59,0,1,1,5.59,0" fill="#3b82f6" stroke-width="2" opacity="0.7"/><path aria-label="% Women Aged 15-44 Living In A County Without A Clinic (2020): 26; % Residents Obtaining Abortions Out-of-State (2020): 1; 2024 Election Result: Democrat; State: Colorado; % Women Without Clinic Access: 26; % Abortions Received Out-of-State: 1; 2024 Presidential Election Result: Democrat" role="graphics-symbol" aria-roledescription="circle" transform="translate(156,396)" d="M5.59,0A5.59,5.59,0,1,1,-5.59,0A5.59,5.59,0,1,1,5.59,0" fill="#3b82f6" stroke-width="2" opacity="0.7"/><path aria-label="% Women Aged 15-44 Living In A County Without A Clinic (2020): 0; % Residents Obtaining Abortions Out-of-State (2020): 6; 2024 Election Result: Democrat; State: Connecticut; % Women Without Clinic Access: 0; % Abortions Received Out-of-State: 6; 2024 Presidential Election Result: Democrat" role="graphics-symbol" aria-roledescription="circle" transform="translate(0,376)" d="M5.59,0A5.59,5.59,0,1,1,-5.59,0A5.59,5.59,0,1,1,5.59,0" fill="#3b82f6" stroke-width="2" opacity="0.7"/><path aria-label="% Women Aged 15-44 Living In A County Without A Clinic (2020): 19; % Residents Obtaining Abortions Out-of-State (2020): 44; 2024 Election Result: Democrat; State: Delaware; % Women Without Clinic Access: 19; % Abortions Received Out-of-State: 44; 2024 Presidential Election Result: Democrat" role="graphics-symbol" aria-roledescription="circle" transform="translate(114,224.00000000000003)" d="M5.59,0A5.59,5.59,0,1,1,-5.59,0A5.59,5.59,0,1,1,5.59,0" fill="#3b82f6" stroke-width="2" opacity="0.7"/><path aria-label="% Women Aged 15-44 Living In A County Without A Clinic (2020): 0; % Residents Obtaining Abortions Out-of-State (2020): 45; 2024 Election Result: Democrat; State: District of Columbia; % Women Without Clinic Access: 0; % Abortions Received Out-of-State: 45; 2024 Presidential Election Result: Democrat" role="graphics-symbol" aria-roledescription="circle" transform="translate(0,220.00000000000003)" d="M5.59,0A5.59,5.59,0,1,1,-5.59,0A5.59,5.59,0,1,1,5.59,0" fill="#3b82f6" stroke-width="2" opacity="0.7"/><path aria-label="% Women Aged 15-44 Living In A County Without A Clinic (2020): 25; % Residents Obtaining Abortions Out-of-State (2020): 1; 2024 Election Result: Republican; State: Florida; % Women Without Clinic Access: 25; % Abortions Received Out-of-State: 1; 2024 Presidential Election Result: Republican" role="graphics-symbol" aria-roledescription="circle" transform="translate(150,396)" d="M5.59,0A5.59,5.59,0,1,1,-5.59,0A5.59,5.59,0,1,1,5.59,0" fill="#ef4444" stroke-width="2" opacity="0.7"/><path aria-label="% Women Aged 15-44 Living In A County Without A Clinic (2020): 55; % Residents Obtaining Abortions Out-of-State (2020): 5; 2024 Election Result: Republican; State: Georgia; % Women Without Clinic Access: 55; % Abortions Received Out-of-State: 5; 2024 Presidential Election Result: Republican" role="graphics-symbol" aria-roledescription="circle" transform="translate(330,380)" d="M5.59,0A5.59,5.59,0,1,1,-5.59,0A5.59,5.59,0,1,1,5.59,0" fill="#ef4444" stroke-width="2" opacity="0.7"/><path aria-label="% Women Aged 15-44 Living In A County Without A Clinic (2020): 5; % Residents Obtaining Abortions Out-of-State (2020): 2; 2024 Election Result: Democrat; State: Hawaii; % Women Without Clinic Access: 5; % Abortions Received Out-of-State: 2; 2024 Presidential Election Result: Democrat" role="graphics-symbol" aria-roledescription="circle" transform="translate(30,392)" d="M5.59,0A5.59,5.59,0,1,1,-5.59,0A5.59,5.59,0,1,1,5.59,0" fill="#3b82f6" stroke-width="2" opacity="0.7"/><path aria-label="% Women Aged 15-44 Living In A County Without A Clinic (2020): 67; % Residents Obtaining Abortions Out-of-State (2020): 26; 2024 Election Result: Republican; State: Idaho; % Women Without Clinic Access: 67; % Abortions Received Out-of-State: 26; 2024 Presidential Election Result: Republican" role="graphics-symbol" aria-roledescription="circle" transform="translate(402,296)" d="M5.59,0A5.59,5.59,0,1,1,-5.59,0A5.59,5.59,0,1,1,5.59,0" fill="#ef4444" stroke-width="2" opacity="0.7"/><path aria-label="% Women Aged 15-44 Living In A County Without A Clinic (2020): 32; % Residents Obtaining Abortions Out-of-State (2020): 1; 2024 Election Result: Democrat; State: Illinois; % Women Without Clinic Access: 32; % Abortions Received Out-of-State: 1; 2024 Presidential Election Result: Democrat" role="graphics-symbol" aria-roledescription="circle" transform="translate(192,396)" d="M5.59,0A5.59,5.59,0,1,1,-5.59,0A5.59,5.59,0,1,1,5.59,0" fill="#3b82f6" stroke-width="2" opacity="0.7"/><path aria-label="% Women Aged 15-44 Living In A County Without A Clinic (2020): 66; % Residents Obtaining Abortions Out-of-State (2020): 31; 2024 Election Result: Republican; State: Indiana; % Women Without Clinic Access: 66; % Abortions Received Out-of-State: 31; 2024 Presidential Election Result: Republican" role="graphics-symbol" aria-roledescription="circle" transform="translate(396,276)" d="M5.59,0A5.59,5.59,0,1,1,-5.59,0A5.59,5.59,0,1,1,5.59,0" fill="#ef4444" stroke-width="2" opacity="0.7"/><path aria-label="% Women Aged 15-44 Living In A County Without A Clinic (2020): 65; % Residents Obtaining Abortions Out-of-State (2020): 12; 2024 Election Result: Republican; State: Iowa; % Women Without Clinic Access: 65; % Abortions Received Out-of-State: 12; 2024 Presidential Election Result: Republican" role="graphics-symbol" aria-roledescription="circle" transform="translate(390,352)" d="M5.59,0A5.59,5.59,0,1,1,-5.59,0A5.59,5.59,0,1,1,5.59,0" fill="#ef4444" stroke-width="2" opacity="0.7"/><path aria-label="% Women Aged 15-44 Living In A County Without A Clinic (2020): 60; % Residents Obtaining Abortions Out-of-State (2020): 4; 2024 Election Result: Republican; State: Kansas; % Women Without Clinic Access: 60; % Abortions Received Out-of-State: 4; 2024 Presidential Election Result: Republican" role="graphics-symbol" aria-roledescription="circle" transform="translate(360,384)" d="M5.59,0A5.59,5.59,0,1,1,-5.59,0A5.59,5.59,0,1,1,5.59,0" fill="#ef4444" stroke-width="2" opacity="0.7"/><path aria-label="% Women Aged 15-44 Living In A County Without A Clinic (2020): 82; % Residents Obtaining Abortions Out-of-State (2020): 39; 2024 Election Result: Republican; State: Kentucky; % Women Without Clinic Access: 82; % Abortions Received Out-of-State: 39; 2024 Presidential Election Result: Republican" role="graphics-symbol" aria-roledescription="circle" transform="translate(491.99999999999994,244)" d="M5.59,0A5.59,5.59,0,1,1,-5.59,0A5.59,5.59,0,1,1,5.59,0" fill="#ef4444" stroke-width="2" opacity="0.7"/><path aria-label="% Women Aged 15-44 Living In A County Without A Clinic (2020): 75; % Residents Obtaining Abortions Out-of-State (2020): 21; 2024 Election Result: Republican; State: Louisiana; % Women Without Clinic Access: 75; % Abortions Received Out-of-State: 21; 2024 Presidential Election Result: Republican" role="graphics-symbol" aria-roledescription="circle" transform="translate(450,316)" d="M5.59,0A5.59,5.59,0,1,1,-5.59,0A5.59,5.59,0,1,1,5.59,0" fill="#ef4444" stroke-width="2" opacity="0.7"/><path aria-label="% Women Aged 15-44 Living In A County Without A Clinic (2020): 16; % Residents Obtaining Abortions Out-of-State (2020): 5; 2024 Election Result: Democrat; State: Maine; % Women Without Clinic Access: 16; % Abortions Received Out-of-State: 5; 2024 Presidential Election Result: Democrat" role="graphics-symbol" aria-roledescription="circle" transform="translate(96,380)" d="M5.59,0A5.59,5.59,0,1,1,-5.59,0A5.59,5.59,0,1,1,5.59,0" fill="#3b82f6" stroke-width="2" opacity="0.7"/><path aria-label="% Women Aged 15-44 Living In A County Without A Clinic (2020): 23; % Residents Obtaining Abortions Out-of-State (2020): 17; 2024 Election Result: Democrat; State: Maryland; % Women Without Clinic Access: 23; % Abortions Received Out-of-State: 17; 2024 Presidential Election Result: Democrat" role="graphics-symbol" aria-roledescription="circle" transform="translate(138,332)" d="M5.59,0A5.59,5.59,0,1,1,-5.59,0A5.59,5.59,0,1,1,5.59,0" fill="#3b82f6" stroke-width="2" opacity="0.7"/><path aria-label="% Women Aged 15-44 Living In A County Without A Clinic (2020): 14; % Residents Obtaining Abortions Out-of-State (2020): 6; 2024 Election Result: Democrat; State: Massachusetts; % Women Without Clinic Access: 14; % Abortions Received Out-of-State: 6; 2024 Presidential Election Result: Democrat" role="graphics-symbol" aria-roledescription="circle" transform="translate(84.00000000000001,376)" d="M5.59,0A5.59,5.59,0,1,1,-5.59,0A5.59,5.59,0,1,1,5.59,0" fill="#3b82f6" stroke-width="2" opacity="0.7"/><path aria-label="% Women Aged 15-44 Living In A County Without A Clinic (2020): 34; % Residents Obtaining Abortions Out-of-State (2020): 1; 2024 Election Result: Republican; State: Michigan; % Women Without Clinic Access: 34; % Abortions Received Out-of-State: 1; 2024 Presidential Election Result: Republican" role="graphics-symbol" aria-roledescription="circle" transform="translate(204.00000000000003,396)" d="M5.59,0A5.59,5.59,0,1,1,-5.59,0A5.59,5.59,0,1,1,5.59,0" fill="#ef4444" stroke-width="2" opacity="0.7"/><path aria-label="% Women Aged 15-44 Living In A County Without A Clinic (2020): 58; % Residents Obtaining Abortions Out-of-State (2020): 3; 2024 Election Result: Democrat; State: Minnesota; % Women Without Clinic Access: 58; % Abortions Received Out-of-State: 3; 2024 Presidential Election Result: Democrat" role="graphics-symbol" aria-roledescription="circle" transform="translate(348,388)" d="M5.59,0A5.59,5.59,0,1,1,-5.59,0A5.59,5.59,0,1,1,5.59,0" fill="#3b82f6" stroke-width="2" opacity="0.7"/><path aria-label="% Women Aged 15-44 Living In A County Without A Clinic (2020): 92; % Residents Obtaining Abortions Out-of-State (2020): 44; 2024 Election Result: Republican; State: Mississippi; % Women Without Clinic Access: 92; % Abortions Received Out-of-State: 44; 2024 Presidential Election Result: Republican" role="graphics-symbol" aria-roledescription="circle" transform="translate(552,224.00000000000003)" d="M5.59,0A5.59,5.59,0,1,1,-5.59,0A5.59,5.59,0,1,1,5.59,0" fill="#ef4444" stroke-width="2" opacity="0.7"/><path aria-label="% Women Aged 15-44 Living In A County Without A Clinic (2020): 94; % Residents Obtaining Abortions Out-of-State (2020): 99; 2024 Election Result: Republican; State: Missouri; % Women Without Clinic Access: 94; % Abortions Received Out-of-State: 99; 2024 Presidential Election Result: Republican" role="graphics-symbol" aria-roledescription="circle" transform="translate(564,4.0000000000000036)" d="M5.59,0A5.59,5.59,0,1,1,-5.59,0A5.59,5.59,0,1,1,5.59,0" fill="#ef4444" stroke-width="2" opacity="0.7"/><path aria-label="% Women Aged 15-44 Living In A County Without A Clinic (2020): 47; % Residents Obtaining Abortions Out-of-State (2020): 3; 2024 Election Result: Republican; State: Montana; % Women Without Clinic Access: 47; % Abortions Received Out-of-State: 3; 2024 Presidential Election Result: Republican" role="graphics-symbol" aria-roledescription="circle" transform="translate(282,388)" d="M5.59,0A5.59,5.59,0,1,1,-5.59,0A5.59,5.59,0,1,1,5.59,0" fill="#ef4444" stroke-width="2" opacity="0.7"/><path aria-label="% Women Aged 15-44 Living In A County Without A Clinic (2020): 39; % Residents Obtaining Abortions Out-of-State (2020): 8; 2024 Election Result: Republican; State: Nebraska; % Women Without Clinic Access: 39; % Abortions Received Out-of-State: 8; 2024 Presidential Election Result: Republican" role="graphics-symbol" aria-roledescription="circle" transform="translate(234,368)" d="M5.59,0A5.59,5.59,0,1,1,-5.59,0A5.59,5.59,0,1,1,5.59,0" fill="#ef4444" stroke-width="2" opacity="0.7"/><path aria-label="% Women Aged 15-44 Living In A County Without A Clinic (2020): 9; % Residents Obtaining Abortions Out-of-State (2020): 4; 2024 Election Result: Republican; State: Nevada; % Women Without Clinic Access: 9; % Abortions Received Out-of-State: 4; 2024 Presidential Election Result: Republican" role="graphics-symbol" aria-roledescription="circle" transform="translate(54,384)" d="M5.59,0A5.59,5.59,0,1,1,-5.59,0A5.59,5.59,0,1,1,5.59,0" fill="#ef4444" stroke-width="2" opacity="0.7"/><path aria-label="% Women Aged 15-44 Living In A County Without A Clinic (2020): 30; % Residents Obtaining Abortions Out-of-State (2020): 23; 2024 Election Result: Democrat; State: New Hampshire; % Women Without Clinic Access: 30; % Abortions Received Out-of-State: 23; 2024 Presidential Election Result: Democrat" role="graphics-symbol" aria-roledescription="circle" transform="translate(180,308)" d="M5.59,0A5.59,5.59,0,1,1,-5.59,0A5.59,5.59,0,1,1,5.59,0" fill="#3b82f6" stroke-width="2" opacity="0.7"/><path aria-label="% Women Aged 15-44 Living In A County Without A Clinic (2020): 21; % Residents Obtaining Abortions Out-of-State (2020): 6; 2024 Election Result: Democrat; State: New Jersey; % Women Without Clinic Access: 21; % Abortions Received Out-of-State: 6; 2024 Presidential Election Result: Democrat" role="graphics-symbol" aria-roledescription="circle" transform="translate(126,376)" d="M5.59,0A5.59,5.59,0,1,1,-5.59,0A5.59,5.59,0,1,1,5.59,0" fill="#3b82f6" stroke-width="2" opacity="0.7"/><path aria-label="% Women Aged 15-44 Living In A County Without A Clinic (2020): 48; % Residents Obtaining Abortions Out-of-State (2020): 8; 2024 Election Result: Democrat; State: New Mexico; % Women Without Clinic Access: 48; % Abortions Received Out-of-State: 8; 2024 Presidential Election Result: Democrat" role="graphics-symbol" aria-roledescription="circle" transform="translate(288,368)" d="M5.59,0A5.59,5.59,0,1,1,-5.59,0A5.59,5.59,0,1,1,5.59,0" fill="#3b82f6" stroke-width="2" opacity="0.7"/><path aria-label="% Women Aged 15-44 Living In A County Without A Clinic (2020): 6; % Residents Obtaining Abortions Out-of-State (2020): 1; 2024 Election Result: Democrat; State: New York; % Women Without Clinic Access: 6; % Abortions Received Out-of-State: 1; 2024 Presidential Election Result: Democrat" role="graphics-symbol" aria-roledescription="circle" transform="translate(36,396)" d="M5.59,0A5.59,5.59,0,1,1,-5.59,0A5.59,5.59,0,1,1,5.59,0" fill="#3b82f6" stroke-width="2" opacity="0.7"/><path aria-label="% Women Aged 15-44 Living In A County Without A Clinic (2020): 53; % Residents Obtaining Abortions Out-of-State (2020): 2; 2024 Election Result: Republican; State: North Carolina; % Women Without Clinic Access: 53; % Abortions Received Out-of-State: 2; 2024 Presidential Election Result: Republican" role="graphics-symbol" aria-roledescription="circle" transform="translate(318,392)" d="M5.59,0A5.59,5.59,0,1,1,-5.59,0A5.59,5.59,0,1,1,5.59,0" fill="#ef4444" stroke-width="2" opacity="0.7"/><path aria-label="% Women Aged 15-44 Living In A County Without A Clinic (2020): 72; % Residents Obtaining Abortions Out-of-State (2020): 13; 2024 Election Result: Republican; State: North Dakota; % Women Without Clinic Access: 72; % Abortions Received Out-of-State: 13; 2024 Presidential Election Result: Republican" role="graphics-symbol" aria-roledescription="circle" transform="translate(432,348)" d="M5.59,0A5.59,5.59,0,1,1,-5.59,0A5.59,5.59,0,1,1,5.59,0" fill="#ef4444" stroke-width="2" opacity="0.7"/><path aria-label="% Women Aged 15-44 Living In A County Without A Clinic (2020): 55; % Residents Obtaining Abortions Out-of-State (2020): 10; 2024 Election Result: Republican; State: Ohio; % Women Without Clinic Access: 55; % Abortions Received Out-of-State: 10; 2024 Presidential Election Result: Republican" role="graphics-symbol" aria-roledescription="circle" transform="translate(330,360)" d="M5.59,0A5.59,5.59,0,1,1,-5.59,0A5.59,5.59,0,1,1,5.59,0" fill="#ef4444" stroke-width="2" opacity="0.7"/><path aria-label="% Women Aged 15-44 Living In A County Without A Clinic (2020): 53; % Residents Obtaining Abortions Out-of-State (2020): 5; 2024 Election Result: Republican; State: Oklahoma; % Women Without Clinic Access: 53; % Abortions Received Out-of-State: 5; 2024 Presidential Election Result: Republican" role="graphics-symbol" aria-roledescription="circle" transform="translate(318,380)" d="M5.59,0A5.59,5.59,0,1,1,-5.59,0A5.59,5.59,0,1,1,5.59,0" fill="#ef4444" stroke-width="2" opacity="0.7"/><path aria-label="% Women Aged 15-44 Living In A County Without A Clinic (2020): 22; % Residents Obtaining Abortions Out-of-State (2020): 5; 2024 Election Result: Democrat; State: Oregon; % Women Without Clinic Access: 22; % Abortions Received Out-of-State: 5; 2024 Presidential Election Result: Democrat" role="graphics-symbol" aria-roledescription="circle" transform="translate(132,380)" d="M5.59,0A5.59,5.59,0,1,1,-5.59,0A5.59,5.59,0,1,1,5.59,0" fill="#3b82f6" stroke-width="2" opacity="0.7"/><path aria-label="% Women Aged 15-44 Living In A County Without A Clinic (2020): 38; % Residents Obtaining Abortions Out-of-State (2020): 14; 2024 Election Result: Republican; State: Pennsylvania; % Women Without Clinic Access: 38; % Abortions Received Out-of-State: 14; 2024 Presidential Election Result: Republican" role="graphics-symbol" aria-roledescription="circle" transform="translate(228,344)" d="M5.59,0A5.59,5.59,0,1,1,-5.59,0A5.59,5.59,0,1,1,5.59,0" fill="#ef4444" stroke-width="2" opacity="0.7"/><path aria-label="% Women Aged 15-44 Living In A County Without A Clinic (2020): 36; % Residents Obtaining Abortions Out-of-State (2020): 17; 2024 Election Result: Democrat; State: Rhode Island; % Women Without Clinic Access: 36; % Abortions Received Out-of-State: 17; 2024 Presidential Election Result: Democrat" role="graphics-symbol" aria-roledescription="circle" transform="translate(216,332)" d="M5.59,0A5.59,5.59,0,1,1,-5.59,0A5.59,5.59,0,1,1,5.59,0" fill="#3b82f6" stroke-width="2" opacity="0.7"/><path aria-label="% Women Aged 15-44 Living In A County Without A Clinic (2020): 71; % Residents Obtaining Abortions Out-of-State (2020): 57; 2024 Election Result: Republican; State: South Carolina; % Women Without Clinic Access: 71; % Abortions Received Out-of-State: 57; 2024 Presidential Election Result: Republican" role="graphics-symbol" aria-roledescription="circle" transform="translate(426,172.00000000000003)" d="M5.59,0A5.59,5.59,0,1,1,-5.59,0A5.59,5.59,0,1,1,5.59,0" fill="#ef4444" stroke-width="2" opacity="0.7"/><path aria-label="% Women Aged 15-44 Living In A County Without A Clinic (2020): 76; % Residents Obtaining Abortions Out-of-State (2020): 84; 2024 Election Result: Republican; State: South Dakota; % Women Without Clinic Access: 76; % Abortions Received Out-of-State: 84; 2024 Presidential Election Result: Republican" role="graphics-symbol" aria-roledescription="circle" transform="translate(456,64.00000000000001)" d="M5.59,0A5.59,5.59,0,1,1,-5.59,0A5.59,5.59,0,1,1,5.59,0" fill="#ef4444" stroke-width="2" opacity="0.7"/><path aria-label="% Women Aged 15-44 Living In A County Without A Clinic (2020): 61; % Residents Obtaining Abortions Out-of-State (2020): 23; 2024 Election Result: Republican; State: Tennessee; % Women Without Clinic Access: 61; % Abortions Received Out-of-State: 23; 2024 Presidential Election Result: Republican" role="graphics-symbol" aria-roledescription="circle" transform="translate(366,308)" d="M5.59,0A5.59,5.59,0,1,1,-5.59,0A5.59,5.59,0,1,1,5.59,0" fill="#ef4444" stroke-width="2" opacity="0.7"/><path aria-label="% Women Aged 15-44 Living In A County Without A Clinic (2020): 44; % Residents Obtaining Abortions Out-of-State (2020): 8; 2024 Election Result: Republican; State: Texas; % Women Without Clinic Access: 44; % Abortions Received Out-of-State: 8; 2024 Presidential Election Result: Republican" role="graphics-symbol" aria-roledescription="circle" transform="translate(264,368)" d="M5.59,0A5.59,5.59,0,1,1,-5.59,0A5.59,5.59,0,1,1,5.59,0" fill="#ef4444" stroke-width="2" opacity="0.7"/><path aria-label="% Women Aged 15-44 Living In A County Without A Clinic (2020): 64; % Residents Obtaining Abortions Out-of-State (2020): 8; 2024 Election Result: Republican; State: Utah; % Women Without Clinic Access: 64; % Abortions Received Out-of-State: 8; 2024 Presidential Election Result: Republican" role="graphics-symbol" aria-roledescription="circle" transform="translate(384,368)" d="M5.59,0A5.59,5.59,0,1,1,-5.59,0A5.59,5.59,0,1,1,5.59,0" fill="#ef4444" stroke-width="2" opacity="0.7"/><path aria-label="% Women Aged 15-44 Living In A County Without A Clinic (2020): 38; % Residents Obtaining Abortions Out-of-State (2020): 7; 2024 Election Result: Democrat; State: Vermont; % Women Without Clinic Access: 38; % Abortions Received Out-of-State: 7; 2024 Presidential Election Result: Democrat" role="graphics-symbol" aria-roledescription="circle" transform="translate(228,372)" d="M5.59,0A5.59,5.59,0,1,1,-5.59,0A5.59,5.59,0,1,1,5.59,0" fill="#3b82f6" stroke-width="2" opacity="0.7"/><path aria-label="% Women Aged 15-44 Living In A County Without A Clinic (2020): 79; % Residents Obtaining Abortions Out-of-State (2020): 25; 2024 Election Result: Democrat; State: Virginia; % Women Without Clinic Access: 79; % Abortions Received Out-of-State: 25; 2024 Presidential Election Result: Democrat" role="graphics-symbol" aria-roledescription="circle" transform="translate(474,300)" d="M5.59,0A5.59,5.59,0,1,1,-5.59,0A5.59,5.59,0,1,1,5.59,0" fill="#3b82f6" stroke-width="2" opacity="0.7"/><path aria-label="% Women Aged 15-44 Living In A County Without A Clinic (2020): 9; % Residents Obtaining Abortions Out-of-State (2020): 5; 2024 Election Result: Democrat; State: Washington; % Women Without Clinic Access: 9; % Abortions Received Out-of-State: 5; 2024 Presidential Election Result: Democrat" role="graphics-symbol" aria-roledescription="circle" transform="translate(54,380)" d="M5.59,0A5.59,5.59,0,1,1,-5.59,0A5.59,5.59,0,1,1,5.59,0" fill="#3b82f6" stroke-width="2" opacity="0.7"/><path aria-label="% Women Aged 15-44 Living In A County Without A Clinic (2020): 90; % Residents Obtaining Abortions Out-of-State (2020): 52; 2024 Election Result: Republican; State: West Virginia; % Women Without Clinic Access: 90; % Abortions Received Out-of-State: 52; 2024 Presidential Election Result: Republican" role="graphics-symbol" aria-roledescription="circle" transform="translate(540,192)" d="M5.59,0A5.59,5.59,0,1,1,-5.59,0A5.59,5.59,0,1,1,5.59,0" fill="#ef4444" stroke-width="2" opacity="0.7"/><path aria-label="% Women Aged 15-44 Living In A County Without A Clinic (2020): 68; % Residents Obtaining Abortions Out-of-State (2020): 17; 2024 Election Result: Republican; State: Wisconsin; % Women Without Clinic Access: 68; % Abortions Received Out-of-State: 17; 2024 Presidential Election Result: Republican" role="graphics-symbol" aria-roledescription="circle" transform="translate(408.00000000000006,332)" d="M5.59,0A5.59,5.59,0,1,1,-5.59,0A5.59,5.59,0,1,1,5.59,0" fill="#ef4444" stroke-width="2" opacity="0.7"/><path aria-label="% Women Aged 15-44 Living In A County Without A Clinic (2020): 96; % Residents Obtaining Abortions Out-of-State (2020): 88; 2024 Election Result: Republican; State: Wyoming; % Women Without Clinic Access: 96; % Abortions Received Out-of-State: 88; 2024 Presidential Election Result: Republican" role="graphics-symbol" aria-roledescription="circle" transform="translate(576,48)" d="M5.59,0A5.59,5.59,0,1,1,-5.59,0A5.59,5.59,0,1,1,5.59,0" fill="#ef4444" stroke-width="2" opacity="0.7"/></g><g class="mark-group role-legend" role="graphics-symbol" aria-roledescription="legend" aria-label="Symbol legend titled '2024 Election Result' for fill color with 2 values: Democrat, Republican"><g transform="translate(618,0)"><path class="background" aria-hidden="true" d="M0,0h137v53h-137Z" pointer-events="none"/><g><g class="mark-group role-legend-entry"><g transform="translate(0,19)"><path class="background" aria-hidden="true" d="M0,0h0v0h0Z" pointer-events="none"/><g><g class="mark-group role-scope" role="graphics-object" aria-roledescription="group mark container"><g transform="translate(0,0)"><path class="background" aria-hidden="true" d="M0,0h85.04443359375v15.071067811865476h-85.04443359375Z" pointer-events="none" opacity="1"/><g><g class="mark-symbol role-legend-symbol" pointer-events="none"><path transform="translate(8,8)" d="M7.071,0A7.071,7.071,0,1,1,-7.071,0A7.071,7.071,0,1,1,7.071,0" fill="#3b82f6" stroke-width="1.5" opacity="0.7"/></g><g class="mark-text role-legend-label" pointer-events="none"><text text-anchor="start" transform="translate(20,12)" font-family="sans-serif" font-size="13px" fill="#000" opacity="1">Democrat</text></g></g><path class="foreground" aria-hidden="true" d="" pointer-events="none" display="none"/></g><g transform="translate(0,18)"><path class="background" aria-hidden="true" d="M0,0h85.04443359375v15.071067811865476h-85.04443359375Z" pointer-events="none" opacity="1"/><g><g class="mark-symbol role-legend-symbol" pointer-events="none"><path transform="translate(8,8)" d="M7.071,0A7.071,7.071,0,1,1,-7.071,0A7.071,7.071,0,1,1,7.071,0" fill="#ef4444" stroke-width="1.5" opacity="0.7"/></g><g class="mark-text role-legend-label" pointer-events="none"><text text-anchor="start" transform="translate(20,12)" font-family="sans-serif" font-size="13px" fill="#000" opacity="1">Republican</text></g></g><path class="foreground" aria-hidden="true" d="" pointer-events="none" display="none"/></g></g></g><path class="foreground" aria-hidden="true" d="" pointer-events="none" display="none"/></g></g><g class="mark-text role-legend-title" pointer-events="none"><text text-anchor="start" transform="translate(0,11)" font-family="sans-serif" font-size="14px" font-weight="bold" fill="#000" opacity="1">2024 Election Result</text></g></g><path class="foreground" aria-hidden="true" d="" pointer-events="none" display="none"/></g></g><g class="mark-group role-title"><g transform="translate(-53.021484375,-40)"><path class="background" aria-hidden="true" d="M0,0h0v0h0Z" pointer-events="none"/><g><g class="mark-text role-title-text" role="graphics-symbol" aria-roledescription="title" aria-label="Title text 'Women living in Republican states are travelling at high rates to receive abortions'" pointer-events="none"><text text-anchor="start" transform="translate(0,16)" font-family="sans-serif" font-size="20px" font-weight="bold" fill="#000" opacity="1">Women living in Republican states are travelling at high rates to receive abortions</text></g></g><path class="foreground" aria-hidden="true" d="" pointer-events="none" display="none"/></g></g></g><path class="foreground" aria-hidden="true" d="" display="none"/></g></g></g></svg>