<svg xmlns="http://www.w3.org/2000/svg" xmlns:xlink="http://www.w3.org/1999/xlink" version="1.1" class="marks" width="834" height="516" viewBox="0 0 834 516"><rect width="834" height="516" fill="white"/><g fill="none" stroke-miterlimit="10" transform="translate(66,67)"><g class="mark-group role-frame root" role="graphics-object" aria-roledescription="group mark container"><g transform="translate(0,0)"><path class="background" aria-hidden="true" d="M0.5,0.5h600v400h-600Z" stroke="#ddd"/><g><g class="mark-group role-axis" aria-hidden="true"><g transform="translate(0.5,400.5)"><path class="background" aria-hidden="true" d="M0,0h0v0h0Z" pointer-events="none"/><g><g class="mark-rule role-axis-grid" pointer-events="none"><line transform="translate(0,-400)" x2="0" y2="400" stroke="#ddd" stroke-width="1" opacity="1"/><line transform="translate(33,-400)" x2="0" y2="400" stroke="#ddd" stroke-width="1" opacity="1"/><line transform="translate(67,-400)" x2="0" y2="400" stroke="#ddd" stroke-width="1" opacity="1"/><line transform="translate(100,-400)" x2="0" y2="400" stroke="#ddd" stroke-width="1" opacity="1"/><line transform="translate(133,-400)" x2="0" y2="400" stroke="#ddd" stroke-width="1" opacity="1"/><line transform="translate(167,-400)" x2="0" y2="400" stroke="#ddd" stroke-width="1" opacity="1"/><line transform="translate(200,-400)" x2="0" y2="400" stroke="#ddd" stroke-width="1" opacity="1"/><line transform="translate(233,-400)" x2="0" y2="400" stroke="#ddd" stroke-width="1" opacity="1"/><line transform="translate(267,-400)" x2="0" y2="400" stroke="#ddd" stroke-width="1" opacity="1"/><line transform="translate(300,-400)" x2="0" y2="400" stroke="#ddd" stroke-width="1" opacity="1"/><line transform="translate(333,-400)" x2="0" y2="400" stroke="#ddd" stroke-width="1" opacity="1"/><line transform="translate(367,-400)" x2="0" y2="400" stroke="#ddd" stroke-width="1" opacity="1"/><line transform="translate(400,-400)" x2="0" y2="400" stroke="#ddd" stroke-width="1" opacity="1"/><line transform="translate(433,-400)" x2="0" y2="400" stroke="#ddd" stroke-width="1" opacity="1"/><line transform="translate(467,-400)" x2="0" y2="400" stroke="#ddd" stroke-width="1" opacity="1"/><line transform="translate(500,-400)" x2="0" y2="400" stroke="#ddd" stroke-width="1" opacity="1"/><line transform="translate(533,-400)" x2="0" y2="400" stroke="#ddd" stroke-width="1" opacity="1"/><line transform="translate(567,-400)" x2="0" y2="400" stroke="#ddd" stroke-width="1" opacity="1"/><line transform="translate(600,-400)" x2="0" y2="400" stroke="#ddd" stroke-width="1" opacity="1"/></g></g><path class="foreground" aria-hidden="true" d="" pointer-events="none" display="none"/></g></g><g class="mark-group role-axis" aria-hidden="true"><g transform="translate(0.5,0.5)"><path class="background" aria-hidden="true" d="M0,0h0v0h0Z" pointer-events="none"/><g><g class="mark-rule role-axis-grid" pointer-events="none"><line transform="translate(0,400)" x2="600" y2="0" stroke="#ddd" stroke-width="1" opacity="1"/><line transform="translate(0,360)" x2="600" y2="0" stroke="#ddd" stroke-width="1" opacity="1"/><line transform="translate(0,320)" x2="600" y2="0" stroke="#ddd" stroke-width="1" opacity="1"/><line transform="translate(0,280)" x2="600" y2="0" stroke="#ddd" stroke-width="1" opacity="1"/><line transform="translate(0,240)" x2="600" y2="0" stroke="#ddd" stroke-width="1" opacity="1"/><line transform="translate(0,200)" x2="600" y2="0" stroke="#ddd" stroke-width="1" opacity="1"/><line transform="translate(0,160)" x2="600" y2="0" stroke="#ddd" stroke-width="1" opacity="1"/><line transform="translate(0,120)" x2="600" y2="0" stroke="#ddd" stroke-width="1" opacity="1"/><line transform="translate(0,80)" x2="600" y2="0" stroke="#ddd" stroke-width="1" opacity="1"/><line transform="translate(0,40)" x2="600" y2="0" stroke="#ddd" stroke-width="1" opacity="1"/><line transform="translate(0,0)" x2="600" y2="0" stroke="#ddd" stroke-width="1" opacity="1"/></g></g><path class="foreground" aria-hidden="true" d="" pointer-events="none" display="none"/></g></g><g class="mark-group role-axis" role="graphics-symbol" aria-roledescription="axis" aria-label="X-axis titled '% Change in Number of Abortion Clinics (2017-2020)' for a linear scale with values from −80 to 100"><g transform="translate(0.5,400.5)"><path class="background" aria-hidden="true" d="M0,0h0v0h0Z" pointer-events="none"/><g><g class="mark-rule role-axis-tick" pointer-events="none"><line transform="translate(0,0)" x2="0" y2="5" stroke="#888" stroke-width="1" opacity="1"/><line transform="translate(33,0)" x2="0" y2="5" stroke="#888" stroke-width="1" opacity="1"/><line transform="translate(67,0)" x2="0" y2="5" stroke="#888" stroke-width="1" opacity="1"/><line transform="translate(100,0)" x2="0" y2="5" stroke="#888" stroke-width="1" opacity="1"/><line transform="translate(133,0)" x2="0" y2="5" stroke="#888" stroke-width="1" opacity="1"/><line transform="translate(167,0)" x2="0" y2="5" stroke="#888" stroke-width="1" opacity="1"/><line transform="translate(200,0)" x2="0" y2="5" stroke="#888" stroke-width="1" opacity="1"/><line transform="translate(233,0)" x2="0" y2="5" stroke="#888" stroke-width="1" opacity="1"/><line transform="translate(267,0)" x2="0" y2="5" stroke="#888" stroke-width="1" opacity="1"/><line transform="translate(300,0)" x2="0" y2="5" stroke="#888" stroke-width="1" opacity="1"/><line transform="translate(333,0)" x2="0" y2="5" stroke="#888" stroke-width="1" opacity="1"/><line transform="translate(367,0)" x2="0" y2="5" stroke="#888" stroke-width="1" opacity="1"/><line transform="translate(400,0)" x2="0" y2="5" stroke="#888" stroke-width="1" opacity="1"/><line transform="translate(433,0)" x2="0" y2="5" stroke="#888" stroke-width="1" opacity="1"/><line transform="translate(467,0)" x2="0" y2="5" stroke="#888" stroke-width="1" opacity="1"/><line transform="translate(500,0)" x2="0" y2="5" stroke="#888" stroke-width="1" opacity="1"/><line transform="translate(533,0)" x2="0" y2="5" stroke="#888" stroke-width="1" opacity="1"/><line transform="translate(567,0)" x2="0" y2="5" stroke="#888" stroke-width="1" opacity="1"/><line transform="translate(600,0)" x2="0" y2="5" stroke="#888" stroke-width="1" opacity="1"/></g><g class="mark-text role-axis-label" pointer-events="none"><text text-anchor="start" transform="translate(0,16)" font-family="sans-serif" font-size="12px" fill="#000" opacity="1">−80</text><text text-anchor="middle" transform="translate(33.33333333333333,16)" font-family="sans-serif" font-size="12px" fill="#000" opacity="1">−70</text><text text-anchor="middle" transform="translate(66.66666666666666,16)" font-family="sans-serif" font-size="12px" fill="#000" opacity="1">−60</text><text text-anchor="middle" transform="translate(100,16)" font-family="sans-serif" font-size="12px" fill="#000" opacity="1">−50</text><text text-anchor="middle" transform="translate(133.33333333333331,16)" font-family="sans-serif" font-size="12px" fill="#000" opacity="1">−40</text><text text-anchor="middle" transform="translate(166.66666666666669,16)" font-family="sans-serif" font-size="12px" fill="#000" opacity="1">−30</text><text text-anchor="middle" transform="translate(200,16)" font-family="sans-serif" font-size="12px" fill="#000" opacity="1">−20</text><text text-anchor="middle" transform="translate(233.33333333333334,16)" font-family="sans-serif" font-size="12px" fill="#000" opacity="1">−10</text><text text-anchor="middle" transform="translate(266.66666666666663,16)" font-family="sans-serif" font-size="12px" fill="#000" opacity="1">0</text><text text-anchor="middle" transform="translate(300,16)" font-family="sans-serif" font-size="12px" fill="#000" opacity="1">10</text><text text-anchor="middle" transform="translate(333.33333333333337,16)" font-family="sans-serif" font-size="12px" fill="#000" opacity="1">20</text><text text-anchor="middle" transform="translate(366.6666666666667,16)" font-family="sans-serif" font-size="12px" fill="#000" opacity="1">30</text><text text-anchor="middle" transform="translate(400,16)" font-family="sans-serif" font-size="12px" fill="#000" opacity="1">40</text><text text-anchor="middle" transform="translate(433.3333333333333,16)" font-family="sans-serif" font-size="12px" fill="#000" opacity="1">50</text><text text-anchor="middle" transform="translate(466.6666666666667,16)" font-family="sans-serif" font-size="12px" fill="#000" opacity="1">60</text><text text-anchor="middle" transform="translate(500,16)" font-family="sans-serif" font-size="12px" fill="#000" opacity="1">70</text><text text-anchor="middle" transform="translate(533.3333333333333,16)" font-family="sans-serif" font-size="12px" fill="#000" opacity="1">80</text><text text-anchor="middle" transform="translate(566.6666666666666,16)" font-family="sans-serif" font-size="12px" fill="#000" opacity="1">90</text><text text-anchor="end" transform="translate(600,16)" font-family="sans-serif" font-size="12px" fill="#000" opacity="1">100</text></g><g class="mark-rule role-axis-domain" pointer-events="none"><line transform="translate(0,0)" x2="600" y2="0" stroke="#888" stroke-width="1" opacity="1"/></g><g class="mark-text role-axis-title" pointer-events="none"><text text-anchor="middle" transform="translate(300,41)" font-family="sans-serif" font-size="14px" font-weight="bold" fill="#000" opacity="1">% Change in Number of Abortion Clinics (2017-2020)</text></g></g><path class="foreground" aria-hidden="true" d="" pointer-events="none" display="none"/></g></g><g class="mark-group role-axis" role="graphics-symbol" aria-roledescription="axis" aria-label="Y-axis titled '% Change in Number of Abortions (2017-2020)' for a linear scale with values from −100 to 100"><g transform="translate(0.5,0.5)"><path class="background" aria-hidden="true" d="M0,0h0v0h0Z" pointer-events="none"/><g><g class="mark-rule role-axis-tick" pointer-events="none"><line transform="translate(0,400)" x2="-5" y2="0" stroke="#888" stroke-width="1" opacity="1"/><line transform="translate(0,360)" x2="-5" y2="0" stroke="#888" stroke-width="1" opacity="1"/><line transform="translate(0,320)" x2="-5" y2="0" stroke="#888" stroke-width="1" opacity="1"/><line transform="translate(0,280)" x2="-5" y2="0" stroke="#888" stroke-width="1" opacity="1"/><line transform="translate(0,240)" x2="-5" y2="0" stroke="#888" stroke-width="1" opacity="1"/><line transform="translate(0,200)" x2="-5" y2="0" stroke="#888" stroke-width="1" opacity="1"/><line transform="translate(0,160)" x2="-5" y2="0" stroke="#888" stroke-width="1" opacity="1"/><line transform="translate(0,120)" x2="-5" y2="0" stroke="#888" stroke-width="1" opacity="1"/><line transform="translate(0,80)" x2="-5" y2="0" stroke="#888" stroke-width="1" opacity="1"/><line transform="translate(0,40)" x2="-5" y2="0" stroke="#888" stroke-width="1" opacity="1"/><line transform="translate(0,0)" x2="-5" y2="0" stroke="#888" stroke-width="1" opacity="1"/></g><g class="mark-text role-axis-label" pointer-events="none"><text text-anchor="end" transform="translate(-7,404)" font-family="sans-serif" font-size="12px" fill="#000" opacity="1">−100</text><text text-anchor="end" transform="translate(-7,364)" font-family="sans-serif" font-size="12px" fill="#000" opacity="1">−80</text><text text-anchor="end" transform="translate(-7,324)" font-family="sans-serif" font-size="12px" fill="#000" opacity="1">−60</text><text text-anchor="end" transform="translate(-7,284)" font-family="sans-serif" font-size="12px" fill="#000" opacity="1">−40</text><text text-anchor="end" transform="translate(-7,244)" font-family="sans-serif" font-size="12px" fill="#000" opacity="1">−20</text><text text-anchor="end" transform="translate(-7,204)" font-family="sans-serif" font-size="12px" fill="#000" opacity="1">0</text><text text-anchor="end" transform="translate(-7,164)" font-family="sans-serif" font-size="12px" fill="#000" opacity="1">20</text><text text-anchor="end" transform="translate(-7,124.00000000000001)" font-family="sans-serif" font-size="12px" fill="#000" opacity="1">40</text><text text-anchor="end" transform="translate(-7,83.99999999999999)" font-family="sans-serif" font-size="12px" fill="#000" opacity="1">60</text><text text-anchor="end" transform="translate(-7,43.99999999999999)" font-family="sans-serif" font-size="12px" fill="#000" opacity="1">80</text><text text-anchor="end" transform="translate(-7,4)" font-family="sans-serif" font-size="12px" fill="#000" opacity="1">100</text></g><g class="mark-rule role-axis-domain" pointer-events="none"><line transform="translate(0,400)" x2="0" y2="-400" stroke="#888" stroke-width="1" opacity="1"/></g><g class="mark-text role-axis-title" pointer-events="none"><text text-anchor="middle" transform="translate(-46.029296875,200) rotate(-90) translate(0,-3)" font-family="sans-serif" font-size="14px" font-weight="bold" fill="#000" opacity="1">% Change in Number of Abortions (2017-2020)</text></g></g><path class="foreground" aria-hidden="true" d="" pointer-events="none" display="none"/></g></g><g class="mark-symbol role-mark marks" role="graphics-object" aria-roledescription="symbol mark container"><path aria-label="% Change in Number of Abortion Clinics (2017-2020): 0; % Change in Number of Abortions (2017-2020): −6; 2024 Election Result: Republican; State: Alabama; Change in Clinics (%): 0; Change in Abortion Rate (%): −6; 2024 Presidential Election Result: Republican" role="graphics-symbol" aria-roledescription="circle" transform="translate(266.66666666666663,212)" d="M5.59,0A5.59,5.59,0,1,1,-5.59,0A5.59,5.59,0,1,1,5.59,0" fill="#ef4444" stroke-width="2" opacity="0.7"/><path aria-label="% Change in Number of Abortion Clinics (2017-2020): 0; % Change in Number of Abortions (2017-2020): 0; 2024 Election Result: Republican; State: Alaska; Change in Clinics (%): 0; Change in Abortion Rate (%): 0; 2024 Presidential Election Result: Republican" role="graphics-symbol" aria-roledescription="circle" transform="translate(266.66666666666663,200)" d="M5.59,0A5.59,5.59,0,1,1,-5.59,0A5.59,5.59,0,1,1,5.59,0" fill="#ef4444" stroke-width="2" opacity="0.7"/><path aria-label="% Change in Number of Abortion Clinics (2017-2020): 0; % Change in Number of Abortions (2017-2020): 1; 2024 Election Result: Republican; State: Arizona; Change in Clinics (%): 0; Change in Abortion Rate (%): 1; 2024 Presidential Election Result: Republican" role="graphics-symbol" aria-roledescription="circle" transform="translate(266.66666666666663,198)" d="M5.59,0A5.59,5.59,0,1,1,-5.59,0A5.59,5.59,0,1,1,5.59,0" fill="#ef4444" stroke-width="2" opacity="0.7"/><path aria-label="% Change in Number of Abortion Clinics (2017-2020): −33; % Change in Number of Abortions (2017-2020): 2; 2024 Election Result: Republican; State: Arkansas; Change in Clinics (%): −33; Change in Abortion Rate (%): 2; 2024 Presidential Election Result: Republican" role="graphics-symbol" aria-roledescription="circle" transform="translate(156.66666666666669,196)" d="M5.59,0A5.59,5.59,0,1,1,-5.59,0A5.59,5.59,0,1,1,5.59,0" fill="#ef4444" stroke-width="2" opacity="0.7"/><path aria-label="% Change in Number of Abortion Clinics (2017-2020): 7; % Change in Number of Abortions (2017-2020): 17; 2024 Election Result: Democrat; State: California; Change in Clinics (%): 7; Change in Abortion Rate (%): 17; 2024 Presidential Election Result: Democrat" role="graphics-symbol" aria-roledescription="circle" transform="translate(290,166)" d="M5.59,0A5.59,5.59,0,1,1,-5.59,0A5.59,5.59,0,1,1,5.59,0" fill="#3b82f6" stroke-width="2" opacity="0.7"/><path aria-label="% Change in Number of Abortion Clinics (2017-2020): 28; % Change in Number of Abortions (2017-2020): 3; 2024 Election Result: Democrat; State: Colorado; Change in Clinics (%): 28; Change in Abortion Rate (%): 3; 2024 Presidential Election Result: Democrat" role="graphics-symbol" aria-roledescription="circle" transform="translate(360,194)" d="M5.59,0A5.59,5.59,0,1,1,-5.59,0A5.59,5.59,0,1,1,5.59,0" fill="#3b82f6" stroke-width="2" opacity="0.7"/><path aria-label="% Change in Number of Abortion Clinics (2017-2020): −23; % Change in Number of Abortions (2017-2020): −6; 2024 Election Result: Democrat; State: Connecticut; Change in Clinics (%): −23; Change in Abortion Rate (%): −6; 2024 Presidential Election Result: Democrat" role="graphics-symbol" aria-roledescription="circle" transform="translate(190,212)" d="M5.59,0A5.59,5.59,0,1,1,-5.59,0A5.59,5.59,0,1,1,5.59,0" fill="#3b82f6" stroke-width="2" opacity="0.7"/><path aria-label="% Change in Number of Abortion Clinics (2017-2020): −25; % Change in Number of Abortions (2017-2020): −5; 2024 Election Result: Democrat; State: Delaware; Change in Clinics (%): −25; Change in Abortion Rate (%): −5; 2024 Presidential Election Result: Democrat" role="graphics-symbol" aria-roledescription="circle" transform="translate(183.33333333333334,210)" d="M5.59,0A5.59,5.59,0,1,1,-5.59,0A5.59,5.59,0,1,1,5.59,0" fill="#3b82f6" stroke-width="2" opacity="0.7"/><path aria-label="% Change in Number of Abortion Clinics (2017-2020): 0; % Change in Number of Abortions (2017-2020): 62; 2024 Election Result: Democrat; State: District of Columbia; Change in Clinics (%): 0; Change in Abortion Rate (%): 62; 2024 Presidential Election Result: Democrat" role="graphics-symbol" aria-roledescription="circle" transform="translate(266.66666666666663,75.99999999999997)" d="M5.59,0A5.59,5.59,0,1,1,-5.59,0A5.59,5.59,0,1,1,5.59,0" fill="#3b82f6" stroke-width="2" opacity="0.7"/><path aria-label="% Change in Number of Abortion Clinics (2017-2020): −11; % Change in Number of Abortions (2017-2020): 6; 2024 Election Result: Republican; State: Florida; Change in Clinics (%): −11; Change in Abortion Rate (%): 6; 2024 Presidential Election Result: Republican" role="graphics-symbol" aria-roledescription="circle" transform="translate(230.00000000000003,188)" d="M5.59,0A5.59,5.59,0,1,1,-5.59,0A5.59,5.59,0,1,1,5.59,0" fill="#ef4444" stroke-width="2" opacity="0.7"/><path aria-label="% Change in Number of Abortion Clinics (2017-2020): −7; % Change in Number of Abortions (2017-2020): 12; 2024 Election Result: Republican; State: Georgia; Change in Clinics (%): −7; Change in Abortion Rate (%): 12; 2024 Presidential Election Result: Republican" role="graphics-symbol" aria-roledescription="circle" transform="translate(243.33333333333334,175.99999999999997)" d="M5.59,0A5.59,5.59,0,1,1,-5.59,0A5.59,5.59,0,1,1,5.59,0" fill="#ef4444" stroke-width="2" opacity="0.7"/><path aria-label="% Change in Number of Abortion Clinics (2017-2020): 0; % Change in Number of Abortions (2017-2020): 1; 2024 Election Result: Democrat; State: Hawaii; Change in Clinics (%): 0; Change in Abortion Rate (%): 1; 2024 Presidential Election Result: Democrat" role="graphics-symbol" aria-roledescription="circle" transform="translate(266.66666666666663,198)" d="M5.59,0A5.59,5.59,0,1,1,-5.59,0A5.59,5.59,0,1,1,5.59,0" fill="#3b82f6" stroke-width="2" opacity="0.7"/><path aria-label="% Change in Number of Abortion Clinics (2017-2020): 0; % Change in Number of Abortions (2017-2020): 23; 2024 Election Result: Republican; State: Idaho; Change in Clinics (%): 0; Change in Abortion Rate (%): 23; 2024 Presidential Election Result: Republican" role="graphics-symbol" aria-roledescription="circle" transform="translate(266.66666666666663,154)" d="M5.59,0A5.59,5.59,0,1,1,-5.59,0A5.59,5.59,0,1,1,5.59,0" fill="#ef4444" stroke-width="2" opacity="0.7"/><path aria-label="% Change in Number of Abortion Clinics (2017-2020): 20; % Change in Number of Abortions (2017-2020): 28; 2024 Election Result: Democrat; State: Illinois; Change in Clinics (%): 20; Change in Abortion Rate (%): 28; 2024 Presidential Election Result: Democrat" role="graphics-symbol" aria-roledescription="circle" transform="translate(333.33333333333337,144)" d="M5.59,0A5.59,5.59,0,1,1,-5.59,0A5.59,5.59,0,1,1,5.59,0" fill="#3b82f6" stroke-width="2" opacity="0.7"/><path aria-label="% Change in Number of Abortion Clinics (2017-2020): 17; % Change in Number of Abortions (2017-2020): 2; 2024 Election Result: Republican; State: Indiana; Change in Clinics (%): 17; Change in Abortion Rate (%): 2; 2024 Presidential Election Result: Republican" role="graphics-symbol" aria-roledescription="circle" transform="translate(323.3333333333333,196)" d="M5.59,0A5.59,5.59,0,1,1,-5.59,0A5.59,5.59,0,1,1,5.59,0" fill="#ef4444" stroke-width="2" opacity="0.7"/><path aria-label="% Change in Number of Abortion Clinics (2017-2020): −25; % Change in Number of Abortions (2017-2020): −6; 2024 Election Result: Republican; State: Iowa; Change in Clinics (%): −25; Change in Abortion Rate (%): −6; 2024 Presidential Election Result: Republican" role="graphics-symbol" aria-roledescription="circle" transform="translate(183.33333333333334,212)" d="M5.59,0A5.59,5.59,0,1,1,-5.59,0A5.59,5.59,0,1,1,5.59,0" fill="#ef4444" stroke-width="2" opacity="0.7"/><path aria-label="% Change in Number of Abortion Clinics (2017-2020): 0; % Change in Number of Abortions (2017-2020): 19; 2024 Election Result: Republican; State: Kansas; Change in Clinics (%): 0; Change in Abortion Rate (%): 19; 2024 Presidential Election Result: Republican" role="graphics-symbol" aria-roledescription="circle" transform="translate(266.66666666666663,162)" d="M5.59,0A5.59,5.59,0,1,1,-5.59,0A5.59,5.59,0,1,1,5.59,0" fill="#ef4444" stroke-width="2" opacity="0.7"/><path aria-label="% Change in Number of Abortion Clinics (2017-2020): 100; % Change in Number of Abortions (2017-2020): 26; 2024 Election Result: Republican; State: Kentucky; Change in Clinics (%): 100; Change in Abortion Rate (%): 26; 2024 Presidential Election Result: Republican" role="graphics-symbol" aria-roledescription="circle" transform="translate(600,148)" d="M5.59,0A5.59,5.59,0,1,1,-5.59,0A5.59,5.59,0,1,1,5.59,0" fill="#ef4444" stroke-width="2" opacity="0.7"/><path aria-label="% Change in Number of Abortion Clinics (2017-2020): −25; % Change in Number of Abortions (2017-2020): −25; 2024 Election Result: Republican; State: Louisiana; Change in Clinics (%): −25; Change in Abortion Rate (%): −25; 2024 Presidential Election Result: Republican" role="graphics-symbol" aria-roledescription="circle" transform="translate(183.33333333333334,250)" d="M5.59,0A5.59,5.59,0,1,1,-5.59,0A5.59,5.59,0,1,1,5.59,0" fill="#ef4444" stroke-width="2" opacity="0.7"/><path aria-label="% Change in Number of Abortion Clinics (2017-2020): 6; % Change in Number of Abortions (2017-2020): 15; 2024 Election Result: Democrat; State: Maine; Change in Clinics (%): 6; Change in Abortion Rate (%): 15; 2024 Presidential Election Result: Democrat" role="graphics-symbol" aria-roledescription="circle" transform="translate(286.6666666666667,170.00000000000003)" d="M5.59,0A5.59,5.59,0,1,1,-5.59,0A5.59,5.59,0,1,1,5.59,0" fill="#3b82f6" stroke-width="2" opacity="0.7"/><path aria-label="% Change in Number of Abortion Clinics (2017-2020): −8; % Change in Number of Abortions (2017-2020): 4; 2024 Election Result: Democrat; State: Maryland; Change in Clinics (%): −8; Change in Abortion Rate (%): 4; 2024 Presidential Election Result: Democrat" role="graphics-symbol" aria-roledescription="circle" transform="translate(240,192)" d="M5.59,0A5.59,5.59,0,1,1,-5.59,0A5.59,5.59,0,1,1,5.59,0" fill="#3b82f6" stroke-width="2" opacity="0.7"/><path aria-label="% Change in Number of Abortion Clinics (2017-2020): −11; % Change in Number of Abortions (2017-2020): −10; 2024 Election Result: Democrat; State: Massachusetts; Change in Clinics (%): −11; Change in Abortion Rate (%): −10; 2024 Presidential Election Result: Democrat" role="graphics-symbol" aria-roledescription="circle" transform="translate(230.00000000000003,220.00000000000003)" d="M5.59,0A5.59,5.59,0,1,1,-5.59,0A5.59,5.59,0,1,1,5.59,0" fill="#3b82f6" stroke-width="2" opacity="0.7"/><path aria-label="% Change in Number of Abortion Clinics (2017-2020): 14; % Change in Number of Abortions (2017-2020): 18; 2024 Election Result: Republican; State: Michigan; Change in Clinics (%): 14; Change in Abortion Rate (%): 18; 2024 Presidential Election Result: Republican" role="graphics-symbol" aria-roledescription="circle" transform="translate(313.33333333333337,164)" d="M5.59,0A5.59,5.59,0,1,1,-5.59,0A5.59,5.59,0,1,1,5.59,0" fill="#ef4444" stroke-width="2" opacity="0.7"/><path aria-label="% Change in Number of Abortion Clinics (2017-2020): 43; % Change in Number of Abortions (2017-2020): 1; 2024 Election Result: Democrat; State: Minnesota; Change in Clinics (%): 43; Change in Abortion Rate (%): 1; 2024 Presidential Election Result: Democrat" role="graphics-symbol" aria-roledescription="circle" transform="translate(410,198)" d="M5.59,0A5.59,5.59,0,1,1,-5.59,0A5.59,5.59,0,1,1,5.59,0" fill="#3b82f6" stroke-width="2" opacity="0.7"/><path aria-label="% Change in Number of Abortion Clinics (2017-2020): 0; % Change in Number of Abortions (2017-2020): 42; 2024 Election Result: Republican; State: Mississippi; Change in Clinics (%): 0; Change in Abortion Rate (%): 42; 2024 Presidential Election Result: Republican" role="graphics-symbol" aria-roledescription="circle" transform="translate(266.66666666666663,116.00000000000001)" d="M5.59,0A5.59,5.59,0,1,1,-5.59,0A5.59,5.59,0,1,1,5.59,0" fill="#ef4444" stroke-width="2" opacity="0.7"/><path aria-label="% Change in Number of Abortion Clinics (2017-2020): −67; % Change in Number of Abortions (2017-2020): −98; 2024 Election Result: Republican; State: Missouri; Change in Clinics (%): −67; Change in Abortion Rate (%): −98; 2024 Presidential Election Result: Republican" role="graphics-symbol" aria-roledescription="circle" transform="translate(43.33333333333333,396)" d="M5.59,0A5.59,5.59,0,1,1,-5.59,0A5.59,5.59,0,1,1,5.59,0" fill="#ef4444" stroke-width="2" opacity="0.7"/><path aria-label="% Change in Number of Abortion Clinics (2017-2020): 20; % Change in Number of Abortions (2017-2020): −1; 2024 Election Result: Republican; State: Montana; Change in Clinics (%): 20; Change in Abortion Rate (%): −1; 2024 Presidential Election Result: Republican" role="graphics-symbol" aria-roledescription="circle" transform="translate(333.33333333333337,202)" d="M5.59,0A5.59,5.59,0,1,1,-5.59,0A5.59,5.59,0,1,1,5.59,0" fill="#ef4444" stroke-width="2" opacity="0.7"/><path aria-label="% Change in Number of Abortion Clinics (2017-2020): 0; % Change in Number of Abortions (2017-2020): 7; 2024 Election Result: Republican; State: Nebraska; Change in Clinics (%): 0; Change in Abortion Rate (%): 7; 2024 Presidential Election Result: Republican" role="graphics-symbol" aria-roledescription="circle" transform="translate(266.66666666666663,186)" d="M5.59,0A5.59,5.59,0,1,1,-5.59,0A5.59,5.59,0,1,1,5.59,0" fill="#ef4444" stroke-width="2" opacity="0.7"/><path aria-label="% Change in Number of Abortion Clinics (2017-2020): 29; % Change in Number of Abortions (2017-2020): 9; 2024 Election Result: Republican; State: Nevada; Change in Clinics (%): 29; Change in Abortion Rate (%): 9; 2024 Presidential Election Result: Republican" role="graphics-symbol" aria-roledescription="circle" transform="translate(363.3333333333333,181.99999999999997)" d="M5.59,0A5.59,5.59,0,1,1,-5.59,0A5.59,5.59,0,1,1,5.59,0" fill="#ef4444" stroke-width="2" opacity="0.7"/><path aria-label="% Change in Number of Abortion Clinics (2017-2020): 0; % Change in Number of Abortions (2017-2020): −10; 2024 Election Result: Democrat; State: New Hampshire; Change in Clinics (%): 0; Change in Abortion Rate (%): −10; 2024 Presidential Election Result: Democrat" role="graphics-symbol" aria-roledescription="circle" transform="translate(266.66666666666663,220.00000000000003)" d="M5.59,0A5.59,5.59,0,1,1,-5.59,0A5.59,5.59,0,1,1,5.59,0" fill="#3b82f6" stroke-width="2" opacity="0.7"/><path aria-label="% Change in Number of Abortion Clinics (2017-2020): −10; % Change in Number of Abortions (2017-2020): 4; 2024 Election Result: Democrat; State: New Jersey; Change in Clinics (%): −10; Change in Abortion Rate (%): 4; 2024 Presidential Election Result: Democrat" role="graphics-symbol" aria-roledescription="circle" transform="translate(233.33333333333334,192)" d="M5.59,0A5.59,5.59,0,1,1,-5.59,0A5.59,5.59,0,1,1,5.59,0" fill="#3b82f6" stroke-width="2" opacity="0.7"/><path aria-label="% Change in Number of Abortion Clinics (2017-2020): 0; % Change in Number of Abortions (2017-2020): 26; 2024 Election Result: Democrat; State: New Mexico; Change in Clinics (%): 0; Change in Abortion Rate (%): 26; 2024 Presidential Election Result: Democrat" role="graphics-symbol" aria-roledescription="circle" transform="translate(266.66666666666663,148)" d="M5.59,0A5.59,5.59,0,1,1,-5.59,0A5.59,5.59,0,1,1,5.59,0" fill="#3b82f6" stroke-width="2" opacity="0.7"/><path aria-label="% Change in Number of Abortion Clinics (2017-2020): −8; % Change in Number of Abortions (2017-2020): 10; 2024 Election Result: Democrat; State: New York; Change in Clinics (%): −8; Change in Abortion Rate (%): 10; 2024 Presidential Election Result: Democrat" role="graphics-symbol" aria-roledescription="circle" transform="translate(240,179.99999999999997)" d="M5.59,0A5.59,5.59,0,1,1,-5.59,0A5.59,5.59,0,1,1,5.59,0" fill="#3b82f6" stroke-width="2" opacity="0.7"/><path aria-label="% Change in Number of Abortion Clinics (2017-2020): 14; % Change in Number of Abortions (2017-2020): 5; 2024 Election Result: Republican; State: North Carolina; Change in Clinics (%): 14; Change in Abortion Rate (%): 5; 2024 Presidential Election Result: Republican" role="graphics-symbol" aria-roledescription="circle" transform="translate(313.33333333333337,190)" d="M5.59,0A5.59,5.59,0,1,1,-5.59,0A5.59,5.59,0,1,1,5.59,0" fill="#ef4444" stroke-width="2" opacity="0.7"/><path aria-label="% Change in Number of Abortion Clinics (2017-2020): 0; % Change in Number of Abortions (2017-2020): −1; 2024 Election Result: Republican; State: North Dakota; Change in Clinics (%): 0; Change in Abortion Rate (%): −1; 2024 Presidential Election Result: Republican" role="graphics-symbol" aria-roledescription="circle" transform="translate(266.66666666666663,202)" d="M5.59,0A5.59,5.59,0,1,1,-5.59,0A5.59,5.59,0,1,1,5.59,0" fill="#ef4444" stroke-width="2" opacity="0.7"/><path aria-label="% Change in Number of Abortion Clinics (2017-2020): 11; % Change in Number of Abortions (2017-2020): 1; 2024 Election Result: Republican; State: Ohio; Change in Clinics (%): 11; Change in Abortion Rate (%): 1; 2024 Presidential Election Result: Republican" role="graphics-symbol" aria-roledescription="circle" transform="translate(303.3333333333333,198)" d="M5.59,0A5.59,5.59,0,1,1,-5.59,0A5.59,5.59,0,1,1,5.59,0" fill="#ef4444" stroke-width="2" opacity="0.7"/><path aria-label="% Change in Number of Abortion Clinics (2017-2020): 25; % Change in Number of Abortions (2017-2020): 100; 2024 Election Result: Republican; State: Oklahoma; Change in Clinics (%): 25; Change in Abortion Rate (%): 100; 2024 Presidential Election Result: Republican" role="graphics-symbol" aria-roledescription="circle" transform="translate(350,0)" d="M5.59,0A5.59,5.59,0,1,1,-5.59,0A5.59,5.59,0,1,1,5.59,0" fill="#ef4444" stroke-width="2" opacity="0.7"/><path aria-label="% Change in Number of Abortion Clinics (2017-2020): 6; % Change in Number of Abortions (2017-2020): −13; 2024 Election Result: Democrat; State: Oregon; Change in Clinics (%): 6; Change in Abortion Rate (%): −13; 2024 Presidential Election Result: Democrat" role="graphics-symbol" aria-roledescription="circle" transform="translate(286.6666666666667,225.99999999999997)" d="M5.59,0A5.59,5.59,0,1,1,-5.59,0A5.59,5.59,0,1,1,5.59,0" fill="#3b82f6" stroke-width="2" opacity="0.7"/><path aria-label="% Change in Number of Abortion Clinics (2017-2020): −6; % Change in Number of Abortions (2017-2020): 4; 2024 Election Result: Republican; State: Pennsylvania; Change in Clinics (%): −6; Change in Abortion Rate (%): 4; 2024 Presidential Election Result: Republican" role="graphics-symbol" aria-roledescription="circle" transform="translate(246.66666666666666,192)" d="M5.59,0A5.59,5.59,0,1,1,-5.59,0A5.59,5.59,0,1,1,5.59,0" fill="#ef4444" stroke-width="2" opacity="0.7"/><path aria-label="% Change in Number of Abortion Clinics (2017-2020): −50; % Change in Number of Abortions (2017-2020): −20; 2024 Election Result: Democrat; State: Rhode Island; Change in Clinics (%): −50; Change in Abortion Rate (%): −20; 2024 Presidential Election Result: Democrat" role="graphics-symbol" aria-roledescription="circle" transform="translate(100,240)" d="M5.59,0A5.59,5.59,0,1,1,-5.59,0A5.59,5.59,0,1,1,5.59,0" fill="#3b82f6" stroke-width="2" opacity="0.7"/><path aria-label="% Change in Number of Abortion Clinics (2017-2020): −25; % Change in Number of Abortions (2017-2020): 0; 2024 Election Result: Republican; State: South Carolina; Change in Clinics (%): −25; Change in Abortion Rate (%): 0; 2024 Presidential Election Result: Republican" role="graphics-symbol" aria-roledescription="circle" transform="translate(183.33333333333334,200)" d="M5.59,0A5.59,5.59,0,1,1,-5.59,0A5.59,5.59,0,1,1,5.59,0" fill="#ef4444" stroke-width="2" opacity="0.7"/><path aria-label="% Change in Number of Abortion Clinics (2017-2020): 0; % Change in Number of Abortions (2017-2020): −74; 2024 Election Result: Republican; State: South Dakota; Change in Clinics (%): 0; Change in Abortion Rate (%): −74; 2024 Presidential Election Result: Republican" role="graphics-symbol" aria-roledescription="circle" transform="translate(266.66666666666663,348)" d="M5.59,0A5.59,5.59,0,1,1,-5.59,0A5.59,5.59,0,1,1,5.59,0" fill="#ef4444" stroke-width="2" opacity="0.7"/><path aria-label="% Change in Number of Abortion Clinics (2017-2020): −12; % Change in Number of Abortions (2017-2020): −12; 2024 Election Result: Republican; State: Tennessee; Change in Clinics (%): −12; Change in Abortion Rate (%): −12; 2024 Presidential Election Result: Republican" role="graphics-symbol" aria-roledescription="circle" transform="translate(226.66666666666666,224.00000000000003)" d="M5.59,0A5.59,5.59,0,1,1,-5.59,0A5.59,5.59,0,1,1,5.59,0" fill="#ef4444" stroke-width="2" opacity="0.7"/><path aria-label="% Change in Number of Abortion Clinics (2017-2020): 14; % Change in Number of Abortions (2017-2020): 1; 2024 Election Result: Republican; State: Texas; Change in Clinics (%): 14; Change in Abortion Rate (%): 1; 2024 Presidential Election Result: Republican" role="graphics-symbol" aria-roledescription="circle" transform="translate(313.33333333333337,198)" d="M5.59,0A5.59,5.59,0,1,1,-5.59,0A5.59,5.59,0,1,1,5.59,0" fill="#ef4444" stroke-width="2" opacity="0.7"/><path aria-label="% Change in Number of Abortion Clinics (2017-2020): 0; % Change in Number of Abortions (2017-2020): 0; 2024 Election Result: Republican; State: Utah; Change in Clinics (%): 0; Change in Abortion Rate (%): 0; 2024 Presidential Election Result: Republican" role="graphics-symbol" aria-roledescription="circle" transform="translate(266.66666666666663,200)" d="M5.59,0A5.59,5.59,0,1,1,-5.59,0A5.59,5.59,0,1,1,5.59,0" fill="#ef4444" stroke-width="2" opacity="0.7"/><path aria-label="% Change in Number of Abortion Clinics (2017-2020): 0; % Change in Number of Abortions (2017-2020): −6; 2024 Election Result: Democrat; State: Vermont; Change in Clinics (%): 0; Change in Abortion Rate (%): −6; 2024 Presidential Election Result: Democrat" role="graphics-symbol" aria-roledescription="circle" transform="translate(266.66666666666663,212)" d="M5.59,0A5.59,5.59,0,1,1,-5.59,0A5.59,5.59,0,1,1,5.59,0" fill="#3b82f6" stroke-width="2" opacity="0.7"/><path aria-label="% Change in Number of Abortion Clinics (2017-2020): 6; % Change in Number of Abortions (2017-2020): 8; 2024 Election Result: Democrat; State: Virginia; Change in Clinics (%): 6; Change in Abortion Rate (%): 8; 2024 Presidential Election Result: Democrat" role="graphics-symbol" aria-roledescription="circle" transform="translate(286.6666666666667,184)" d="M5.59,0A5.59,5.59,0,1,1,-5.59,0A5.59,5.59,0,1,1,5.59,0" fill="#3b82f6" stroke-width="2" opacity="0.7"/><path aria-label="% Change in Number of Abortion Clinics (2017-2020): −8; % Change in Number of Abortions (2017-2020): −3; 2024 Election Result: Democrat; State: Washington; Change in Clinics (%): −8; Change in Abortion Rate (%): −3; 2024 Presidential Election Result: Democrat" role="graphics-symbol" aria-roledescription="circle" transform="translate(240,206)" d="M5.59,0A5.59,5.59,0,1,1,-5.59,0A5.59,5.59,0,1,1,5.59,0" fill="#3b82f6" stroke-width="2" opacity="0.7"/><path aria-label="% Change in Number of Abortion Clinics (2017-2020): 0; % Change in Number of Abortions (2017-2020): −30; 2024 Election Result: Republican; State: West Virginia; Change in Clinics (%): 0; Change in Abortion Rate (%): −30; 2024 Presidential Election Result: Republican" role="graphics-symbol" aria-roledescription="circle" transform="translate(266.66666666666663,260)" d="M5.59,0A5.59,5.59,0,1,1,-5.59,0A5.59,5.59,0,1,1,5.59,0" fill="#ef4444" stroke-width="2" opacity="0.7"/><path aria-label="% Change in Number of Abortion Clinics (2017-2020): 33; % Change in Number of Abortions (2017-2020): 8; 2024 Election Result: Republican; State: Wisconsin; Change in Clinics (%): 33; Change in Abortion Rate (%): 8; 2024 Presidential Election Result: Republican" role="graphics-symbol" aria-roledescription="circle" transform="translate(376.6666666666667,184)" d="M5.59,0A5.59,5.59,0,1,1,-5.59,0A5.59,5.59,0,1,1,5.59,0" fill="#ef4444" stroke-width="2" opacity="0.7"/><path aria-label="% Change in Number of Abortion Clinics (2017-2020): 0; % Change in Number of Abortions (2017-2020): −31; 2024 Election Result: Republican; State: Wyoming; Change in Clinics (%): 0; Change in Abortion Rate (%): −31; 2024 Presidential Election Result: Republican" role="graphics-symbol" aria-roledescription="circle" transform="translate(266.66666666666663,262)" d="M5.59,0A5.59,5.59,0,1,1,-5.59,0A5.59,5.59,0,1,1,5.59,0" fill="#ef4444" stroke-width="2" opacity="0.7"/></g><g class="mark-group role-legend" role="graphics-symbol" aria-roledescription="legend" aria-label="Symbol legend titled '2024 Election Result' for fill color with 2 values: Democrat, Republican"><g transform="translate(618,0)"><path class="background" aria-hidden="true" d="M0,0h137v53h-137Z" pointer-events="none"/><g><g class="mark-group role-legend-entry"><g transform="translate(0,19)"><path class="background" aria-hidden="true" d="M0,0h0v0h0Z" pointer-events="none"/><g><g class="mark-group role-scope" role="graphics-object" aria-roledescription="group mark container"><g transform="translate(0,0)"><path class="background" aria-hidden="true" d="M0,0h85.04443359375v15.071067811865476h-85.04443359375Z" pointer-events="none" opacity="1"/><g><g class="mark-symbol role-legend-symbol" pointer-events="none"><path transform="translate(8,8)" d="M7.071,0A7.071,7.071,0,1,1,-7.071,0A7.071,7.071,0,1,1,7.071,0" fill="#3b82f6" stroke-width="1.5" opacity="0.7"/></g><g class="mark-text role-legend-label" pointer-events="none"><text text-anchor="start" transform="translate(20,12)" font-family="sans-serif" font-size="13px" fill="#000" opacity="1">Democrat</text></g></g><path class="foreground" aria-hidden="true" d="" pointer-events="none" display="none"/></g><g transform="translate(0,18)"><path class="background" aria-hidden="true" d="M0,0h85.04443359375v15.071067811865476h-85.04443359375Z" pointer-events="none" opacity="1"/><g><g class="mark-symbol role-legend-symbol" pointer-events="none"><path transform="translate(8,8)" d="M7.071,0A7.071,7.071,0,1,1,-7.071,0A7.071,7.071,0,1,1,7.071,0" fill="#ef4444" stroke-width="1.5" opacity="0.7"/></g><g class="mark-text role-legend-label" pointer-events="none"><text text-anchor="start" transform="translate(20,12)" font-family="sans-serif" font-size="13px" fill="#000" opacity="1">Republican</text></g></g><path class="foreground" aria-hidden="true" d="" pointer-events="none" display="none"/></g></g></g><path class="foreground" aria-hidden="true" d="" pointer-events="none" display="none"/></g></g><g class="mark-text role-legend-title" pointer-events="none"><text text-anchor="start" transform="translate(0,11)" font-family="sans-serif" font-size="14px" font-weight="bold" fill="#000" opacity="1">2024 Election Result</text></g></g><path class="foreground" aria-hidden="true" d="" pointer-events="none" display="none"/></g></g><g class="mark-group role-title"><g transform="translate(-60.029296875,-62)"><path class="background" aria-hidden="true" d="M0,0h0v0h0Z" pointer-events="none"/><g><g class="mark-text role-title-text" role="graphics-symbol" aria-roledescription="title" aria-label="Title text 'The political war over abortion access seems pointless— changes in the number of abortions and clinics are uniform across red and blue states'" pointer-events="none"><text text-anchor="start" transform="translate(0,16)" font-family="sans-serif" font-size="20px" font-weight="bold" fill="#000" opacity="1"><tspan>The political war over abortion access seems pointless—</tspan><tspan x="0" dy="22">changes in the number of abortions and clinics are uniform across red and blue states</tspan></text></g></g><path class="foreground" aria-hidden="true" d="" pointer-events="none" display="none"/></g></g></g><path class="foreground" aria-hidden="true" d="" display="none"/></g></g></g></svg>